# xmcd
#
# Track frame offsets:
#	150
#	10985
#	20655
#	34037
#	49895
#	62353
#	77829
#	89328
#	103622
#	114990
#	126877
#	136489
#	145585
#	159693
#	174790
#	187047
#
# Disc length: 2660 seconds
#
# Revision: 2
# Processed by: cddbd v1.5.2PL0 Copyright (c) Steve Scherf et al.
# Submitted via: EasyCDDAExtractor 15.2.5.1
#
DISCID=cf0a6210
DTITLE=60'S Oldies pops - 口水歌  日本版
DYEAR=1960
DGENRE=AlternRock
TTITLE0=One Way Ticket
TTITLE1=Diamond Head
TTITLE2=En Blue Jeans Et Blousn D'cuir
TTITLE3=Twist No.9
TTITLE4=Washington Square
TTITLE5=Puff
TTITLE6=A Fool Sucn As  I
TTITLE7=The Young Ones
TTITLE8=Surfin u.s.a.
TTITLE9=Mr.Bass Man
TTITLE10=Summer Holiday
TTITLE11=Come On-A My House
TTITLE12=Oh,My Papa
TTITLE13=The Song From Moulin Rauge
TTITLE14=Qvizas,Qvizas,Qvizas
TTITLE15=Fascnation
EXTD=
EXTT0=
EXTT1=
EXTT2=
EXTT3=
EXTT4=
EXTT5=
EXTT6=
EXTT7=
EXTT8=
EXTT9=
EXTT10=
EXTT11=
EXTT12=
EXTT13=
EXTT14=
EXTT15=
PLAYORDER=
